<?xml version="1.0" standalone="no"?>
<!DOCTYPE svg PUBLIC "-//W3C//DTD SVG 20010904//EN"
 "http://www.w3.org/TR/2001/REC-SVG-20010904/DTD/svg10.dtd">
<svg version="1.0" xmlns="http://www.w3.org/2000/svg"
 width="512.000000pt" height="512.000000pt" viewBox="0 0 512.000000 512.000000"
 preserveAspectRatio="xMidYMid meet">

<g transform="translate(0.000000,512.000000) scale(0.100000,-0.100000)"
fill="#fff" stroke="none">
<path d="M174 4497 c-81 -32 -143 -100 -165 -182 -20 -73 -7 -127 65 -265 l66
-128 -36 -167 -36 -167 39 -42 c185 -195 240 -263 253 -309 7 -26 17 -50 21
-53 5 -3 9 -65 9 -137 0 -239 32 -390 118 -565 l47 -95 -109 -650 c-60 -357
-111 -658 -113 -668 -3 -11 -13 -19 -23 -19 -35 0 -139 -62 -185 -111 -66 -71
-96 -142 -103 -245 l-5 -84 672 0 671 0 -2 223 -3 222 -75 0 -75 0 -3 -147 -3
-148 -244 0 c-135 0 -245 4 -245 9 0 18 47 77 79 98 44 29 93 43 159 43 49 0
52 1 48 23 -3 12 -22 305 -43 651 l-38 629 -86 86 c-193 193 -276 383 -287
659 l-5 132 158 0 c140 0 164 2 202 21 49 24 81 64 104 131 12 36 46 81 134
178 65 71 121 130 125 130 3 0 73 -54 155 -120 l150 -120 572 0 573 0 0 75 0
75 -546 0 -547 0 -182 147 -182 146 -18 88 -17 87 66 127 c62 120 66 131 66
194 0 158 -121 272 -275 259 -70 -6 -122 -34 -180 -95 l-49 -53 -171 0 -170 0
-43 50 c-24 28 -62 60 -85 72 -50 25 -157 33 -203 15z m144 -157 c17 -11 32
-25 32 -32 0 -7 -18 -25 -39 -40 -21 -15 -53 -50 -72 -77 -19 -28 -37 -51 -40
-51 -3 0 -16 22 -29 49 -29 62 -22 109 21 145 37 32 82 34 127 6z m832 5 c16
-8 34 -24 40 -34 16 -31 12 -89 -11 -132 l-20 -40 -28 38 c-15 21 -51 59 -79
85 l-52 46 31 26 c35 30 76 33 119 11z m-260 -156 c73 -33 130 -98 154 -176 7
-21 4 -23 -37 -23 -104 0 -200 -57 -234 -139 -9 -20 -18 -73 -21 -119 -4 -73
-8 -85 -30 -102 -29 -23 -41 -24 -76 -8 -31 14 -46 59 -46 142 0 132 -101 226
-242 226 -47 0 -49 1 -42 23 24 78 81 143 154 176 39 18 65 21 210 21 145 0
171 -3 210 -21z m-468 -369 c22 -17 26 -29 30 -105 7 -110 34 -167 101 -212
90 -61 207 -51 278 24 54 56 63 79 69 177 6 81 8 91 34 113 24 21 37 23 89 21
l61 -3 22 -100 22 -100 -85 -92 c-164 -179 -170 -187 -177 -228 -14 -72 -20
-75 -187 -75 -167 0 -173 2 -184 71 -6 34 -24 60 -99 142 -50 55 -108 119
-128 142 l-37 41 20 90 c11 49 21 95 24 102 8 21 118 16 147 -8z m377 -2180
c17 -278 33 -524 36 -547 3 -32 1 -43 -9 -43 -7 0 -40 -14 -74 -31 -80 -40
-154 -120 -183 -199 l-22 -60 -178 0 c-99 0 -179 4 -179 9 0 4 10 23 23 42 42
62 118 99 204 99 37 0 42 3 47 27 3 16 51 300 106 633 55 333 103 618 106 634
l6 29 43 -44 44 -44 30 -505z"/>
<path d="M2860 3386 l0 -76 260 0 c294 0 368 -10 485 -64 139 -65 253 -175
319 -310 61 -123 67 -168 73 -494 l5 -294 135 -144 134 -143 -30 -224 c-17
-122 -31 -232 -31 -244 0 -23 20 -30 104 -35 l40 -3 32 235 c18 129 33 239 33
243 1 4 15 -8 31 -27 43 -49 155 -122 221 -146 79 -27 185 -43 246 -35 111 14
203 116 203 226 0 111 -95 209 -214 222 -68 7 -109 28 -134 69 -19 30 -20 55
-25 323 -5 333 -13 382 -91 540 -101 205 -285 357 -516 427 -74 22 -85 22
-677 26 l-603 3 0 -75z m1222 -95 c132 -34 271 -119 351 -215 46 -56 104 -152
112 -188 l7 -28 -78 0 -79 0 -24 45 c-34 64 -147 167 -223 203 -35 17 -92 36
-128 43 -47 9 -70 19 -84 36 -10 14 -45 47 -78 74 l-59 49 104 0 c70 0 128 -6
179 -19z m60 -354 c57 -44 112 -117 134 -181 15 -43 18 -101 24 -371 3 -176
10 -329 15 -340 5 -13 5 -16 -2 -10 -5 6 -44 47 -86 92 l-77 82 0 208 c0 284
-15 405 -67 539 -9 23 13 16 59 -19z m452 -258 c3 -17 6 -51 6 -75 l0 -44 -75
0 -75 0 0 38 c0 20 -3 54 -6 75 l-7 37 75 0 76 0 6 -31z m4 -341 l-3 -73 -72
-3 -73 -3 0 76 0 75 75 0 76 0 -3 -72z m45 -273 c24 -41 27 -55 27 -140 0 -52
-4 -95 -8 -95 -10 0 -88 65 -119 100 -27 29 -83 141 -83 164 0 13 13 16 78 16
l77 0 28 -45z m305 -167 c22 -21 28 -51 16 -83 -8 -20 -56 -45 -88 -45 -52 0
-56 7 -56 87 l0 76 53 -7 c32 -5 61 -16 75 -28z"/>
<path d="M1202 3088 l3 -73 75 0 75 0 3 73 3 72 -81 0 -81 0 3 -72z"/>
<path d="M1810 3085 l0 -76 73 3 72 3 3 73 3 72 -76 0 -75 0 0 -75z"/>
<path d="M2410 3085 l0 -75 75 0 75 0 0 75 0 75 -75 0 -75 0 0 -75z"/>
<path d="M3010 3085 l0 -75 75 0 75 0 0 75 0 75 -75 0 -75 0 0 -75z"/>
<path d="M900 2785 l0 -75 75 0 75 0 0 75 0 75 -75 0 -75 0 0 -75z"/>
<path d="M1510 2785 l0 -76 73 3 72 3 3 73 3 72 -76 0 -75 0 0 -75z"/>
<path d="M2110 2785 l0 -75 75 0 75 0 0 75 0 75 -75 0 -75 0 0 -75z"/>
<path d="M2710 2785 l0 -75 75 0 75 0 0 75 0 75 -75 0 -75 0 0 -75z"/>
<path d="M3310 2785 l0 -75 75 0 75 0 0 75 0 75 -75 0 -75 0 0 -75z"/>
<path d="M1200 2035 l0 -525 80 0 80 0 0 225 0 225 88 0 c275 0 705 58 964
130 61 17 103 20 260 20 l188 0 0 -335 c0 -326 -1 -339 -31 -522 -17 -103 -33
-191 -35 -195 -2 -3 -19 -10 -37 -13 -96 -21 -210 -123 -247 -223 -12 -31 -24
-92 -27 -134 l-6 -78 329 0 329 0 168 335 167 335 0 184 0 184 62 -19 c76 -24
216 -49 274 -49 l44 0 -2 -262 -3 -262 -48 -18 c-150 -56 -236 -176 -252 -350
l-7 -78 358 0 359 0 39 291 c21 160 36 292 34 294 -5 5 -140 27 -143 23 -1 -2
-14 -97 -29 -213 -15 -116 -29 -218 -32 -227 -5 -16 -24 -18 -209 -18 -197 0
-203 1 -198 20 7 26 66 86 106 107 18 9 65 18 105 21 l72 5 0 407 0 407 -147
6 c-154 5 -259 28 -372 79 -162 74 -297 208 -382 381 l-33 67 -297 0 -296 0
-139 -35 c-266 -66 -513 -100 -811 -112 l-163 -6 0 226 0 227 -80 0 -80 0 0
-525z m1845 -47 c40 -61 159 -181 222 -225 l53 -36 0 -209 0 -208 -137 -275
-138 -275 -197 0 c-109 0 -198 4 -198 9 0 18 47 77 79 98 42 29 93 43 152 43
l45 0 42 263 42 262 0 298 c0 163 2 297 4 297 2 0 16 -19 31 -42z"/>
<path d="M3010 2485 l0 -75 75 0 75 0 0 75 0 75 -75 0 -75 0 0 -75z"/>
<path d="M3612 2488 l3 -73 75 0 75 0 3 73 3 72 -81 0 -81 0 3 -72z"/>
<path d="M3310 2185 l0 -75 75 0 75 0 0 75 0 75 -75 0 -75 0 0 -75z"/>
<path d="M1207 1354 c-4 -4 -7 -38 -7 -76 l0 -68 80 0 81 0 -3 73 -3 72 -70 3
c-39 1 -74 0 -78 -4z"/>
</g>
</svg>
